<?xml version="1.0" encoding="UTF-8" standalone="no"?>
<!-- Generator: Adobe Illustrator 12.0.0, SVG Export Plug-In . SVG Version: 6.00 Build 51448)  -->

<svg
   xmlns:dc="http://purl.org/dc/elements/1.1/"
   xmlns:cc="http://creativecommons.org/ns#"
   xmlns:rdf="http://www.w3.org/1999/02/22-rdf-syntax-ns#"
   xmlns:svg="http://www.w3.org/2000/svg"
   xmlns="http://www.w3.org/2000/svg"
   xmlns:sodipodi="http://sodipodi.sourceforge.net/DTD/sodipodi-0.dtd"
   xmlns:inkscape="http://www.inkscape.org/namespaces/inkscape"
   version="1.1"
   id="Capa_1"
   width="486.5"
   height="279.5"
   viewBox="0 0 486.5 279.5"
   xml:space="preserve"
   inkscape:version="0.47 r22583"
   sodipodi:docname="logout.svg"><metadata
   id="metadata27"><rdf:RDF><cc:Work
       rdf:about=""><dc:format>image/svg+xml</dc:format><dc:type
         rdf:resource="http://purl.org/dc/dcmitype/StillImage" /></cc:Work></rdf:RDF></metadata><defs
   id="defs25"><inkscape:perspective
     sodipodi:type="inkscape:persp3d"
     inkscape:vp_x="0 : 139.75 : 1"
     inkscape:vp_y="0 : 1000 : 0"
     inkscape:vp_z="486.5 : 139.75 : 1"
     inkscape:persp3d-origin="243.25 : 93.166667 : 1"
     id="perspective29" /></defs><sodipodi:namedview
   pagecolor="#ffffff"
   bordercolor="#666666"
   borderopacity="1"
   objecttolerance="10"
   gridtolerance="10"
   guidetolerance="10"
   inkscape:pageopacity="0"
   inkscape:pageshadow="2"
   inkscape:window-width="1024"
   inkscape:window-height="685"
   id="namedview23"
   showgrid="false"
   inkscape:zoom="0.84436494"
   inkscape:cx="243.25"
   inkscape:cy="139.75"
   inkscape:window-x="-4"
   inkscape:window-y="32"
   inkscape:window-maximized="1"
   inkscape:current-layer="Capa_1" />
<path
   d="M 486,0.5 0.5,0.5 0.5,279 486,279 486,0.5 z"
   id="path3"
   style="fill:#e8f5ad;stroke:#169134" />
<path
   d="m 470,14.5 -455,0 0,250 455,0 0,-250 z"
   id="path5"
   style="fill:#169134" />
<path
   d="m 199.84,136.891 -45.247,0 0,-38.934 -17.889,-7.366 -45.248,0 -24.202,31.568"
   id="path7"
   style="fill:none;stroke:#e8f5ad;stroke-width:17;stroke-linecap:round;stroke-linejoin:round" />
<path
   d="m 146.174,229.489 0,-46.3 -39.985,-24.201"
   id="path9"
   style="fill:none;stroke:#e8f5ad;stroke-width:17;stroke-linecap:round;stroke-linejoin:round" />
<path
   d="m 42,204.235 52.613,0 0,-49.457"
   id="path11"
   style="fill:none;stroke:#e8f5ad;stroke-width:17;stroke-linecap:round;stroke-linejoin:round" />
<path
   d="m 131.442,89.538 -44.195,58.927 29.464,19.993 41.038,-54.718 -26.307,-24.202 z"
   id="path13"
   style="fill:#e8f5ad" />
<path
   d="m 228.251,136.891 82.599,0"
   id="path15"
   style="fill:none;stroke:#e8f5ad;stroke-width:17" />
<path
   d="m 297.171,114.792 0,44.196 L 334,136.891 297.171,114.792 z"
   id="path17"
   style="fill:#e8f5ad" />
<rect
   x="-450"
   y="38.5"
   width="91"
   height="204"
   id="rect19"
   transform="scale(-1,1)"
   style="fill:#e8f5ad" />
<circle
   cx="329.80301"
   cy="71.650002"
   r="23.15"
   id="circle21"
   sodipodi:cx="329.80301"
   sodipodi:cy="71.650002"
   sodipodi:rx="23.15"
   sodipodi:ry="23.15"
   transform="matrix(-1,0,0,1,486.5,0)"
   style="fill:#e8f5ad;stroke:#169134;stroke-width:2" />
</svg>