<?xml version="1.0" encoding="utf-8"?>
<!-- Generator: Adobe Illustrator 12.0.0, SVG Export Plug-In  -->
<!DOCTYPE svg PUBLIC "-//W3C//DTD SVG 1.1//EN" "http://www.w3.org/Graphics/SVG/1.1/DTD/svg11.dtd" [
	<!ENTITY ns_flows "http://ns.adobe.com/Flows/1.0/">
	<!ENTITY ns_svg "http://www.w3.org/2000/svg">
	<!ENTITY ns_xlink "http://www.w3.org/1999/xlink">
]>
<svg  version="1.1" xmlns="&ns_svg;" xmlns:xlink="&ns_xlink;" xmlns:a="http://ns.adobe.com/AdobeSVGViewerExtensions/3.0/"
	 width="139" height="122" viewBox="-0.8 -0.3 139 122" enable-background="new -0.8 -0.3 139 122" xml:space="preserve">
<defs>
</defs>
<linearGradient id="XMLID_1_" gradientUnits="userSpaceOnUse" x1="77.0806" y1="139.1563" x2="77.5579" y2="4.0698" gradientTransform="matrix(0.995 9.999547e-002 -9.999547e-002 0.995 -2.7455 -1.0403)">
	<stop  offset="0" style="stop-color:#FFFFFF"/>
	<stop  offset="1" style="stop-color:#9B9BF9"/>
	<a:midPointStop  offset="0" style="stop-color:#FFFFFF"/>
	<a:midPointStop  offset="0.5" style="stop-color:#FFFFFF"/>
	<a:midPointStop  offset="1" style="stop-color:#9B9BF9"/>
</linearGradient>
<path fill-rule="evenodd" clip-rule="evenodd" fill="url(#XMLID_1_)" d="M133.6,31.7c12.9,29.4-5.7,66.1-41.4,82.1
	C56.4,129.7,17,118.8,4.1,89.4C-8.8,60,9.7,23.3,45.5,7.3C81.3-8.6,120.7,2.3,133.6,31.7z"/>
<path fill-rule="evenodd" clip-rule="evenodd" d="M90.2,57.9c0.2,3.7,8.4-3.2,11.4,0c-0.8-5.1,0.6-12.4,5.8-12.9
	c-4.1-0.6-6.3,3.8-7.3,4.9c-1,2.1-1.7-0.6-1.8-1.5c-0.9-7.1,1.7-5.1,3.3-5.8c3.2-0.9,6.9-0.7,7.2,1.4c3,1.1,6.5,4.1,6.1,6.5
	c0,3.6-7.4,10-9.5,9.3c3.2,3.1,4.7,8,3.8,15.3c-3.9,4.1-6.1-0.2-9.5-1.9c3.7,4.5,3.7,12.8,5.7,19.1c-1.9,0.8-2.9-0.1-4,0.7
	c-1.1,4.7,0.5,16,1.2,23.1c-0.2,2.3,3,1.9,2.2,3.5c-1.9-0.3-3.6-0.6-4.7-0.7c-0.6,0.2,0.2-1.2,0.4-2.5c-0.9-2.4-4.6-21-4.9-23.1
	c-2,0.2-0.8,0.2-1.7,0.1c-0.5,3.1-1.3,17.7-2.6,22.4c-0.9,2.7,2.1,2.9,1.5,4.2c-0.8-0.1-3.7-0.4-4.1-1c-0.4,0,0.5-1.2,0.6-2.1
	c1-6-0.7-19.3-1.5-25.3c-1.5-1-1.3-0.8-3.3-1.2c-4.7,8-1.3,24.1,1.9,30.6c-6.8,1.1-5.6-5.8-11.4-5.7c0-12.7,0-25.5,0-38.2
	c-8.5,11.2,4,43.5-15.2,43.9c2.6-14.1-6.2-16.7-7.6-26.7c-4.4,0.6-7.3-0.3-9.5-1.9c5.4,6.4-3.7,15.5,1.9,21
	c-2.5,3.9-6.2,6.5-11.4,7.6C46.9,102.3,26.6,79,37.2,54c-0.3-2.2-3.5-1.6-5.7-1.9C31,42.7,33.2,36,41,34.9
	c-3.7-4.7-2.5-16.7,3.8-17.2c6.1-0.9,10.2,9.9,5.7,13.4c-1.7,5,5.9,3.1,8.2,8.4c1.8-2.6,1.7-8.3,3.7-11.1c1.5-0.5,5.8-2.1,9.2-1.9
	c0.3-4.7-3.6-5.6-3.8-9.5c0.1-6.8,9.9-9,11.4-5.7c2.1,0.7,2,9.3-0.1,12.8c-0.5,1.8,0.4,2.1,1.1,2.6c4.4,0.7,8.5,2.2,9.9,4.3
	C89.9,38.8,95.5,51.2,90.2,57.9z M55.7,59.6c0.2,3.3,1.4,4.9,1.6,7c0.3,3.7-0.6,8.1,0,11.7c1.4,8.4,2.1,24,6.3,30.4
	c0-11.7,0-23.4,0-35.1c-0.7-7.5-6-6.5-6.3-14.6c-0.7-4.4,2.4-10.4-2.4-9.1C56.3,55.9,55.3,54.1,55.7,59.6z M61.7,50.3
	c0,0,0.4,3.9,0.1,7.3c0,0-0.7,3.2,0.6,6.5l2.8,4.7c0,0,0.2-2.3,0.1-3.8c-0.3-2.8-1.8-0.4-1.5-2.9c0,0,0.3-3.8,0.4-4.5l-0.3-7.1
	 M87.3,53.7v3.8c0,0-0.5,2.9,1-0.2c1.4-3.1-0.5-11.5-0.5-11.5l-1.5,0.2L87.3,53.7z"/>
</svg>
