<?xml version="1.0" encoding="UTF-8" standalone="no"?>
<!-- Created with Inkscape (http://www.inkscape.org/) -->

<svg
   xmlns:dc="http://purl.org/dc/elements/1.1/"
   xmlns:cc="http://creativecommons.org/ns#"
   xmlns:rdf="http://www.w3.org/1999/02/22-rdf-syntax-ns#"
   xmlns:svg="http://www.w3.org/2000/svg"
   xmlns="http://www.w3.org/2000/svg"
   xmlns:xlink="http://www.w3.org/1999/xlink"
   xmlns:sodipodi="http://sodipodi.sourceforge.net/DTD/sodipodi-0.dtd"
   xmlns:inkscape="http://www.inkscape.org/namespaces/inkscape"
   inkscape:export-ydpi="240.00000"
   inkscape:export-xdpi="240.00000"
   inkscape:export-filename="/home/sa/Desktop/application-pgp-keys.png"
   sodipodi:docname="key.svg"
   inkscape:version="0.47 r22583"
   sodipodi:version="0.32"
   id="svg249"
   height="48.000000px"
   width="48.000000px"
   inkscape:output_extension="org.inkscape.output.svg.inkscape"
   version="1.1">
  <defs
     id="defs3">
    <inkscape:perspective
       sodipodi:type="inkscape:persp3d"
       inkscape:vp_x="0 : 24 : 1"
       inkscape:vp_y="0 : 1000 : 0"
       inkscape:vp_z="48 : 24 : 1"
       inkscape:persp3d-origin="24 : 16 : 1"
       id="perspective89" />
    <radialGradient
       inkscape:collect="always"
       xlink:href="#linearGradient5060"
       id="radialGradient6719"
       gradientUnits="userSpaceOnUse"
       gradientTransform="matrix(-2.774389,0,0,1.969706,112.7623,-872.8854)"
       cx="605.71429"
       cy="486.64789"
       fx="605.71429"
       fy="486.64789"
       r="117.14286" />
    <linearGradient
       inkscape:collect="always"
       id="linearGradient5060">
      <stop
         style="stop-color:black;stop-opacity:1;"
         offset="0"
         id="stop5062" />
      <stop
         style="stop-color:black;stop-opacity:0;"
         offset="1"
         id="stop5064" />
    </linearGradient>
    <radialGradient
       inkscape:collect="always"
       xlink:href="#linearGradient5060"
       id="radialGradient6717"
       gradientUnits="userSpaceOnUse"
       gradientTransform="matrix(2.774389,0,0,1.969706,-1891.633,-872.8854)"
       cx="605.71429"
       cy="486.64789"
       fx="605.71429"
       fy="486.64789"
       r="117.14286" />
    <linearGradient
       id="linearGradient5048">
      <stop
         style="stop-color:black;stop-opacity:0;"
         offset="0"
         id="stop5050" />
      <stop
         id="stop5056"
         offset="0.5"
         style="stop-color:black;stop-opacity:1;" />
      <stop
         style="stop-color:black;stop-opacity:0;"
         offset="1"
         id="stop5052" />
    </linearGradient>
    <linearGradient
       inkscape:collect="always"
       xlink:href="#linearGradient5048"
       id="linearGradient6715"
       gradientUnits="userSpaceOnUse"
       gradientTransform="matrix(2.774389,0,0,1.969706,-1892.179,-872.8854)"
       x1="302.85715"
       y1="366.64789"
       x2="302.85715"
       y2="609.50507" />
    <linearGradient
       id="linearGradient15662">
      <stop
         id="stop15664"
         offset="0.0000000"
         style="stop-color:#ffffff;stop-opacity:1.0000000;" />
      <stop
         id="stop15666"
         offset="1.0000000"
         style="stop-color:#f8f8f8;stop-opacity:1.0000000;" />
    </linearGradient>
    <radialGradient
       id="aigrd3"
       cx="20.8921"
       cy="64.5679"
       r="5.257"
       fx="20.8921"
       fy="64.5679"
       gradientUnits="userSpaceOnUse">
      <stop
         offset="0"
         style="stop-color:#F0F0F0"
         id="stop15573" />
      <stop
         offset="1.0000000"
         style="stop-color:#9a9a9a;stop-opacity:1.0000000;"
         id="stop15575" />
    </radialGradient>
    <radialGradient
       id="aigrd2"
       cx="20.8921"
       cy="114.5684"
       r="5.256"
       fx="20.8921"
       fy="114.5684"
       gradientUnits="userSpaceOnUse">
      <stop
         offset="0"
         style="stop-color:#F0F0F0"
         id="stop15566" />
      <stop
         offset="1.0000000"
         style="stop-color:#9a9a9a;stop-opacity:1.0000000;"
         id="stop15568" />
    </radialGradient>
    <linearGradient
       id="linearGradient269">
      <stop
         id="stop270"
         offset="0.0000000"
         style="stop-color:#a3a3a3;stop-opacity:1.0000000;" />
      <stop
         id="stop271"
         offset="1.0000000"
         style="stop-color:#4c4c4c;stop-opacity:1.0000000;" />
    </linearGradient>
    <linearGradient
       id="linearGradient259">
      <stop
         id="stop260"
         offset="0.0000000"
         style="stop-color:#fafafa;stop-opacity:1.0000000;" />
      <stop
         id="stop261"
         offset="1.0000000"
         style="stop-color:#bbbbbb;stop-opacity:1.0000000;" />
    </linearGradient>
    <radialGradient
       inkscape:collect="always"
       xlink:href="#linearGradient269"
       id="radialGradient15656"
       gradientUnits="userSpaceOnUse"
       gradientTransform="matrix(0.968273,0.000000,0.000000,1.032767,3.353553,0.646447)"
       cx="8.8244190"
       cy="3.7561285"
       fx="8.8244190"
       fy="3.7561285"
       r="37.751713" />
    <radialGradient
       inkscape:collect="always"
       xlink:href="#linearGradient259"
       id="radialGradient15658"
       gradientUnits="userSpaceOnUse"
       gradientTransform="scale(0.960493,1.041132)"
       cx="33.966679"
       cy="35.736916"
       fx="33.966679"
       fy="35.736916"
       r="86.708450" />
    <radialGradient
       inkscape:collect="always"
       xlink:href="#linearGradient15662"
       id="radialGradient15668"
       gradientUnits="userSpaceOnUse"
       gradientTransform="matrix(0.968273,0,0,1.032767,-12.55635,4.5355343)"
       cx="8.1435566"
       cy="7.2678967"
       fx="8.1435566"
       fy="7.2678967"
       r="38.158695" />
    <radialGradient
       r="5.256"
       fy="114.5684"
       fx="20.8921"
       cy="114.5684"
       cx="20.8921"
       gradientTransform="matrix(0.229703,0.000000,0.000000,0.229703,4.613529,3.979808)"
       gradientUnits="userSpaceOnUse"
       id="radialGradient2283"
       xlink:href="#aigrd2"
       inkscape:collect="always" />
    <radialGradient
       r="5.257"
       fy="64.5679"
       fx="20.8921"
       cy="64.5679"
       cx="20.8921"
       gradientTransform="matrix(0.229703,0.000000,0.000000,0.229703,4.613529,3.979808)"
       gradientUnits="userSpaceOnUse"
       id="radialGradient2285"
       xlink:href="#aigrd3"
       inkscape:collect="always" />
    <linearGradient
       id="linearGradient2119">
      <stop
         style="stop-color:#d2b32a;stop-opacity:0.56730771;"
         offset="0.0000000"
         id="stop2121" />
      <stop
         id="stop2378"
         offset="0.11000000"
         style="stop-color:#ffeb3f;stop-opacity:0.72156864;" />
      <stop
         style="stop-color:#fff493;stop-opacity:0.23076923;"
         offset="1.0000000"
         id="stop2123" />
    </linearGradient>
    <linearGradient
       inkscape:collect="always"
       xlink:href="#linearGradient2119"
       id="linearGradient7465"
       gradientUnits="userSpaceOnUse"
       gradientTransform="matrix(0.04585646,0.049308,-0.05215187,0.04891569,81.398788,-22.432431)"
       x1="333.57144"
       y1="459.00504"
       x2="564.28572"
       y2="459.00504" />
    <linearGradient
       inkscape:collect="always"
       xlink:href="#linearGradient2119"
       id="linearGradient7467"
       gradientUnits="userSpaceOnUse"
       gradientTransform="matrix(0.04585646,0.049308,-0.05215187,0.04891569,81.398788,-22.432431)"
       x1="336.15625"
       y1="504.34375"
       x2="567.00000"
       y2="504.34375" />
  </defs>
  <sodipodi:namedview
     inkscape:window-y="32"
     inkscape:window-x="-4"
     inkscape:window-height="685"
     inkscape:window-width="1024"
     inkscape:document-units="px"
     inkscape:grid-bbox="true"
     showgrid="false"
     inkscape:current-layer="layer5"
     inkscape:cy="24.318443"
     inkscape:cx="18.791833"
     inkscape:zoom="5.6568542"
     inkscape:pageshadow="2"
     inkscape:pageopacity="0.0"
     borderopacity="0.25490196"
     bordercolor="#666666"
     pagecolor="#ffffff"
     id="base"
     inkscape:showpageshadow="false"
     inkscape:window-maximized="1" />
  <metadata
     id="metadata4">
    <rdf:RDF>
      <cc:Work
         rdf:about="">
        <dc:format>image/svg+xml</dc:format>
        <dc:type
           rdf:resource="http://purl.org/dc/dcmitype/StillImage" />
        <dc:title>Generic Text</dc:title>
        <dc:subject>
          <rdf:Bag>
            <rdf:li>text</rdf:li>
            <rdf:li>plaintext</rdf:li>
            <rdf:li>regular</rdf:li>
            <rdf:li>document</rdf:li>
          </rdf:Bag>
        </dc:subject>
        <cc:license
           rdf:resource="http://creativecommons.org/licenses/by-sa/2.0/" />
        <dc:creator>
          <cc:Agent>
            <dc:title>Jakub Steiner</dc:title>
          </cc:Agent>
        </dc:creator>
        <dc:source>http://jimmac.musichall.cz</dc:source>
      </cc:Work>
      <cc:License
         rdf:about="http://creativecommons.org/licenses/by/2.0/">
        <cc:permits
           rdf:resource="http://web.resource.org/cc/Reproduction" />
        <cc:permits
           rdf:resource="http://web.resource.org/cc/Distribution" />
        <cc:requires
           rdf:resource="http://web.resource.org/cc/Notice" />
        <cc:requires
           rdf:resource="http://web.resource.org/cc/Attribution" />
        <cc:permits
           rdf:resource="http://web.resource.org/cc/DerivativeWorks" />
        <cc:requires
           rdf:resource="http://web.resource.org/cc/ShareAlike" />
      </cc:License>
      <cc:Work
         rdf:about="">
        <dc:format>image/svg+xml</dc:format>
        <dc:type
           rdf:resource="http://purl.org/dc/dcmitype/StillImage" />
      </cc:Work>
    </rdf:RDF>
  </metadata>
  <g
     inkscape:groupmode="layer"
     id="layer6"
     inkscape:label="Shadow" />
  <g
     style="display:inline"
     inkscape:groupmode="layer"
     inkscape:label="Base"
     id="layer1" />
  <g
     inkscape:groupmode="layer"
     id="layer5"
     inkscape:label="Text"
     style="display:inline">
    <g
       id="g7334"
       transform="translate(68.820186,-7.756368)" />
    <g
       style="display:inline"
       id="g7336"
       transform="translate(68.820186,-7.756368)" />
    <g
       id="g7345"
       transform="matrix(1.8476132,0,0,1.818469,-109.39392,-8.2065553)">
      <path
         sodipodi:nodetypes="csscccccccccccscccccccccccccc"
         id="path2100"
         d="M 72.754718,7.8315357 C 70.114959,4.9930856 65.579692,4.9494479 62.618659,7.7267408 59.657624,10.504034 59.391627,15.051006 62.031385,17.889456 c 1.980301,2.129354 5.028327,2.687439 7.680143,1.661762 l 0.834359,0.897161 1.996216,0.647276 -0.466555,0.997519 3.676179,3.519779 1.256755,-0.214473 -0.236983,1.311002 0.880714,0.947004 1.687014,-0.618032 -0.352822,1.419654 0.803458,0.863933 c 0.0061,0.0065 0.0069,0.0162 0.01545,0.01661 0.0086,4.18e-4 0.02508,0.0076 0.032,0.0011 0,0 3.133754,0.171346 3.133754,0.171346 0,2e-6 1.268467,-2.434012 1.268467,-2.434012 L 73.933551,15.528969 c 1.143411,-2.565748 0.775216,-5.596308 -1.178833,-7.6974333 z m -5.242156,1.0596703 0.200864,0.2159831 c 0.528984,0.5687986 0.479487,1.4788639 -0.101125,2.0234479 L 65.90782,12.72935 c -0.580613,0.544584 -1.471531,0.516579 -2.000514,-0.05222 L 63.70644,12.461146 c -0.528983,-0.568798 -0.496036,-1.463343 0.08458,-2.007927 l 1.704479,-1.5987123 c 0.580614,-0.5445842 1.488082,-0.5321002 2.017065,0.036699 z"
         style="fill:#dabf3c;fill-opacity:1;fill-rule:evenodd;stroke:none" />
      <path
         sodipodi:nodetypes="ccccccccc"
         id="path2102"
         d="m 73.341675,15.963876 10.36962,11.484735 c 0.01216,0.01308 0.01308,0.03193 0.0021,0.04227 l -0.524128,0.491605 c -0.01102,0.01034 -0.02969,0.0081 -0.04185,-0.0049 L 72.777757,16.492802 c -0.01216,-0.01308 -0.01308,-0.03193 -0.0021,-0.04227 l 0.52413,-0.491604 c 0.01102,-0.01034 0.02969,-0.0081 0.04185,0.0049 z"
         style="fill:url(#linearGradient7465);fill-opacity:1;fill-rule:evenodd;stroke:none" />
      <path
         sodipodi:nodetypes="ccccccccccccccscc"
         id="path2104"
         d="M 81.991664,29.356316 71.40017,18.016836 c -0.01069,-0.0115 -0.04435,0.0041 -0.0773,0.035 l -1.497736,1.404798 0.829622,0.892069 1.991607,0.64208 -0.463922,1.000589 3.663605,3.519387 1.277455,-0.21441 -0.255716,1.313054 0.878439,0.944556 1.694669,-0.605735 -0.360019,1.410884 0.813952,0.875218 c 0.0061,0.0065 0.01369,0.01042 0.02228,0.01084 0.0086,4.17e-4 0.01817,-0.0026 0.02509,-0.0091 0,0 1.124579,0.06612 2.049463,0.120267 z"
         style="fill:url(#linearGradient7467);fill-opacity:1;fill-rule:evenodd;stroke:none" />
      <path
         id="path2108"
         d="m 73.832544,14.713457 c -2.446216,-2.266344 -4.273881,-1.79471 -7.392629,-2.505413 l -0.554227,0.519835 c -0.589259,0.552694 -1.493444,0.524272 -2.030303,-0.053 L 63.651528,12.45568 c -0.335279,-0.360516 -0.389945,-0.831147 -0.281329,-1.283038 -0.763302,-0.385167 -1.381718,-0.832369 -1.971191,-1.3080854 -1.31757,2.5083534 -1.036612,5.6138444 0.923124,7.7210884 2.502038,2.690365 6.804061,2.741762 9.603878,0.115683 0.910888,-0.854365 1.543571,-1.890113 1.906534,-2.987873 z"
         style="opacity:0.45405405;fill:#c4a00f;fill-opacity:1;fill-rule:evenodd;stroke:none" />
      <path
         id="path2110"
         d="m 67.500029,8.8918687 0.204392,0.2197769 c 0.528984,0.5687996 0.48742,1.4651334 -0.09319,2.0097164 l -1.704844,1.599053 c -0.580613,0.544583 -1.473898,0.52509 -2.00288,-0.04371 l -0.204393,-0.219777 c -0.528984,-0.568799 -0.487419,-1.465133 0.09319,-2.009717 l 1.704843,-1.5990523 c 0.580612,-0.5445844 1.473896,-0.5250896 2.00288,0.043709 z"
         style="fill:none;stroke:#ac8b0b;stroke-width:0.72868884;stroke-linecap:butt;stroke-linejoin:round;stroke-miterlimit:4;stroke-opacity:1;stroke-dasharray:none" />
      <path
         sodipodi:nodetypes="csscccccccccccscccccccccccccc"
         style="fill:none;stroke:#ac8b0b;stroke-width:1;stroke-linecap:butt;stroke-linejoin:miter;stroke-miterlimit:4;stroke-opacity:1;stroke-dasharray:none"
         d="M 72.754718,7.8315357 C 70.114959,4.9930856 65.579692,4.9494479 62.618659,7.7267408 59.657624,10.504034 59.391627,15.051006 62.031385,17.889456 c 1.980301,2.129354 5.028327,2.687439 7.680143,1.661762 l 0.834359,0.897161 2.260991,0.398932 -0.484113,1.51169 3.181742,2.988125 2.298296,-0.693679 -0.784086,2.321861 0.633496,0.681178 1.951788,-0.866375 -0.370378,1.933823 0.55624,0.598107 c 0.0061,0.0065 0.0069,0.0162 0.01545,0.01661 0.0086,4.18e-4 0.02508,0.0076 0.032,0.0011 0,0 3.133754,0.171346 3.133754,0.171346 0,2e-6 1.268467,-2.434012 1.268467,-2.434012 L 73.933551,15.528969 c 1.143411,-2.565748 0.775216,-5.596308 -1.178833,-7.6974333 z m -5.242156,1.0596703 0.200864,0.2159831 c 0.528984,0.5687986 0.479487,1.4788639 -0.101125,2.0234479 L 65.90782,12.72935 c -0.580613,0.544584 -1.471531,0.516579 -2.000514,-0.05222 L 63.70644,12.461146 c -0.528983,-0.568798 -0.496036,-1.463343 0.08458,-2.007927 l 1.704479,-1.5987123 c 0.580614,-0.5445842 1.488082,-0.5321002 2.017065,0.036699 z"
         id="path2112" />
    </g>
  </g>
</svg>
